%TF.GenerationSoftware,KiCad,Pcbnew,9.0.0*%
%TF.CreationDate,2025-09-02T16:05:32+12:00*%
%TF.ProjectId,conversion board,636f6e76-6572-4736-996f-6e20626f6172,rev?*%
%TF.SameCoordinates,Original*%
%TF.FileFunction,Copper,L1,Top*%
%TF.FilePolarity,Positive*%
%FSLAX46Y46*%
G04 Gerber Fmt 4.6, Leading zero omitted, Abs format (unit mm)*
G04 Created by KiCad (PCBNEW 9.0.0) date 2025-09-02 16:05:32*
%MOMM*%
%LPD*%
G01*
G04 APERTURE LIST*
%ADD10C,0.300000*%
%TA.AperFunction,NonConductor*%
%ADD11C,0.300000*%
%TD*%
%TA.AperFunction,NonConductor*%
%ADD12C,0.200000*%
%TD*%
%TA.AperFunction,ComponentPad*%
%ADD13R,1.700000X1.700000*%
%TD*%
%TA.AperFunction,ComponentPad*%
%ADD14O,1.700000X1.700000*%
%TD*%
%TA.AperFunction,ComponentPad*%
%ADD15R,1.350000X1.350000*%
%TD*%
%TA.AperFunction,ComponentPad*%
%ADD16O,1.350000X1.350000*%
%TD*%
%TA.AperFunction,Conductor*%
%ADD17C,0.400000*%
%TD*%
G04 APERTURE END LIST*
D10*
D11*
X202928572Y-68378328D02*
X202071429Y-68378328D01*
X202500000Y-68378328D02*
X202500000Y-66878328D01*
X202500000Y-66878328D02*
X202357143Y-67092614D01*
X202357143Y-67092614D02*
X202214286Y-67235471D01*
X202214286Y-67235471D02*
X202071429Y-67306900D01*
D12*
X202000000Y-64000000D02*
X202000000Y-70086420D01*
X203000000Y-70086420D02*
X203000000Y-64000000D01*
X202000000Y-69500000D02*
X203000000Y-69500000D01*
X202000000Y-69500000D02*
X203000000Y-69500000D01*
X202000000Y-69500000D02*
X203126504Y-68913579D01*
X202000000Y-69500000D02*
X203126504Y-70086421D01*
X203000000Y-69500000D02*
X201873496Y-70086421D01*
X203000000Y-69500000D02*
X201873496Y-68913579D01*
X202000000Y-69500000D02*
X203000000Y-69500000D01*
X202000000Y-69500000D02*
X203000000Y-69500000D01*
X202000000Y-69500000D02*
X203126504Y-68913579D01*
X202000000Y-69500000D02*
X203126504Y-70086421D01*
X203000000Y-69500000D02*
X201873496Y-70086421D01*
X203000000Y-69500000D02*
X201873496Y-68913579D01*
D10*
D11*
X201428572Y-52378328D02*
X200571429Y-52378328D01*
X201000000Y-52378328D02*
X201000000Y-50878328D01*
X201000000Y-50878328D02*
X200857143Y-51092614D01*
X200857143Y-51092614D02*
X200714286Y-51235471D01*
X200714286Y-51235471D02*
X200571429Y-51306900D01*
D12*
X200500000Y-53000000D02*
X200500000Y-54086420D01*
X201500000Y-54086420D02*
X201500000Y-53000000D01*
X200500000Y-53500000D02*
X201500000Y-53500000D01*
X200500000Y-53500000D02*
X201500000Y-53500000D01*
X200500000Y-53500000D02*
X201626504Y-52913579D01*
X200500000Y-53500000D02*
X201626504Y-54086421D01*
X201500000Y-53500000D02*
X200373496Y-54086421D01*
X201500000Y-53500000D02*
X200373496Y-52913579D01*
X200500000Y-53500000D02*
X201500000Y-53500000D01*
X200500000Y-53500000D02*
X201500000Y-53500000D01*
X200500000Y-53500000D02*
X201626504Y-52913579D01*
X200500000Y-53500000D02*
X201626504Y-54086421D01*
X201500000Y-53500000D02*
X200373496Y-54086421D01*
X201500000Y-53500000D02*
X200373496Y-52913579D01*
D13*
%TO.P,J10,1,P1*%
%TO.N,Net-(J10-P1)*%
X218500000Y-70500000D03*
D14*
%TO.P,J10,2,P2*%
%TO.N,Net-(J10-P2)*%
X215960000Y-70500000D03*
%TD*%
%TO.P,J9,8,Pin_8*%
%TO.N,Net-(J10-P1)*%
X218080000Y-60790000D03*
%TO.P,J9,7,Pin_7*%
%TO.N,Net-(J10-P2)*%
X218080000Y-63330000D03*
%TO.P,J9,6,Pin_6*%
%TO.N,Net-(J8-Pin_2)*%
X215540000Y-60790000D03*
%TO.P,J9,5,Pin_5*%
%TO.N,Net-(J8-Pin_7)*%
X215540000Y-63330000D03*
%TO.P,J9,4,Pin_4*%
%TO.N,Net-(J8-Pin_3)*%
X213000000Y-60790000D03*
%TO.P,J9,3,Pin_3*%
%TO.N,Net-(J8-Pin_6)*%
X213000000Y-63330000D03*
%TO.P,J9,2,Pin_2*%
%TO.N,Net-(J8-Pin_4)*%
X210460000Y-60790000D03*
D13*
%TO.P,J9,1,Pin_1*%
%TO.N,Net-(J8-Pin_5)*%
X210460000Y-63330000D03*
%TD*%
%TO.P,J11,1,Pin_1*%
%TO.N,Net-(J11-Pin_1)*%
X195000000Y-63330000D03*
D14*
%TO.P,J11,2,Pin_2*%
%TO.N,Net-(J11-Pin_2)*%
X195000000Y-60790000D03*
%TO.P,J11,3,Pin_3*%
%TO.N,Net-(J11-Pin_3)*%
X197540000Y-63330000D03*
%TO.P,J11,4,Pin_4*%
%TO.N,Net-(J11-Pin_4)*%
X197540000Y-60790000D03*
%TO.P,J11,5,Pin_5*%
%TO.N,Net-(J11-Pin_5)*%
X200080000Y-63330000D03*
%TO.P,J11,6,Pin_6*%
%TO.N,Net-(J11-Pin_6)*%
X200080000Y-60790000D03*
%TO.P,J11,7,Pin_7*%
%TO.N,Net-(J11-Pin_7)*%
X202620000Y-63330000D03*
%TO.P,J11,8,Pin_8*%
%TO.N,Net-(J11-Pin_8)*%
X202620000Y-60790000D03*
%TD*%
D15*
%TO.P,J8,1,Pin_1*%
%TO.N,Net-(J10-P1)*%
X221000000Y-52500000D03*
D16*
%TO.P,J8,2,Pin_2*%
%TO.N,Net-(J8-Pin_2)*%
X219000000Y-52500000D03*
%TO.P,J8,3,Pin_3*%
%TO.N,Net-(J8-Pin_3)*%
X217000000Y-52500000D03*
%TO.P,J8,4,Pin_4*%
%TO.N,Net-(J8-Pin_4)*%
X215000000Y-52500000D03*
%TO.P,J8,5,Pin_5*%
%TO.N,Net-(J8-Pin_5)*%
X213000000Y-52500000D03*
%TO.P,J8,6,Pin_6*%
%TO.N,Net-(J8-Pin_6)*%
X211000000Y-52500000D03*
%TO.P,J8,7,Pin_7*%
%TO.N,Net-(J8-Pin_7)*%
X209000000Y-52500000D03*
%TO.P,J8,8,Pin_8*%
%TO.N,Net-(J10-P2)*%
X207000000Y-52500000D03*
%TO.P,J8,9,Pin_9*%
%TO.N,Net-(J11-Pin_8)*%
X205000000Y-52500000D03*
%TO.P,J8,10,Pin_10*%
%TO.N,Net-(J11-Pin_6)*%
X203000000Y-52500000D03*
%TO.P,J8,11,Pin_11*%
%TO.N,Net-(J11-Pin_4)*%
X201000000Y-52500000D03*
%TO.P,J8,12,Pin_12*%
%TO.N,Net-(J11-Pin_2)*%
X199000000Y-52500000D03*
%TO.P,J8,13,Pin_13*%
%TO.N,Net-(J11-Pin_1)*%
X197000000Y-52500000D03*
%TO.P,J8,14,Pin_14*%
%TO.N,Net-(J11-Pin_3)*%
X195000000Y-52500000D03*
%TO.P,J8,15,Pin_15*%
%TO.N,Net-(J11-Pin_5)*%
X193000000Y-52500000D03*
%TO.P,J8,16,Pin_16*%
%TO.N,Net-(J11-Pin_7)*%
X191000000Y-52500000D03*
%TO.P,J8,17,Pin_17*%
%TO.N,Net-(J12-Pin_8)*%
X189000000Y-52500000D03*
%TO.P,J8,18,Pin_18*%
%TO.N,Net-(J12-Pin_6)*%
X187000000Y-52500000D03*
%TO.P,J8,19,Pin_19*%
%TO.N,Net-(J12-Pin_4)*%
X185000000Y-52500000D03*
%TO.P,J8,20,Pin_20*%
%TO.N,Net-(J12-Pin_2)*%
X183000000Y-52500000D03*
%TO.P,J8,21,Pin_21*%
%TO.N,Net-(J12-Pin_1)*%
X181000000Y-52500000D03*
%TO.P,J8,22,Pin_22*%
%TO.N,Net-(J12-Pin_3)*%
X179000000Y-52500000D03*
%TO.P,J8,23,Pin_23*%
%TO.N,Net-(J12-Pin_5)*%
X177000000Y-52500000D03*
%TO.P,J8,24,Pin_24*%
%TO.N,Net-(J12-Pin_7)*%
X175000000Y-52500000D03*
%TD*%
D14*
%TO.P,J14,2,P2*%
%TO.N,Net-(J12-Pin_7)*%
X185235000Y-70225000D03*
D13*
%TO.P,J14,1,P1*%
%TO.N,Net-(J12-Pin_8)*%
X187775000Y-70225000D03*
%TD*%
D14*
%TO.P,J12,8,Pin_8*%
%TO.N,Net-(J12-Pin_8)*%
X188080000Y-61290000D03*
%TO.P,J12,7,Pin_7*%
%TO.N,Net-(J12-Pin_7)*%
X188080000Y-63830000D03*
%TO.P,J12,6,Pin_6*%
%TO.N,Net-(J12-Pin_6)*%
X185540000Y-61290000D03*
%TO.P,J12,5,Pin_5*%
%TO.N,Net-(J12-Pin_5)*%
X185540000Y-63830000D03*
%TO.P,J12,4,Pin_4*%
%TO.N,Net-(J12-Pin_4)*%
X183000000Y-61290000D03*
%TO.P,J12,3,Pin_3*%
%TO.N,Net-(J12-Pin_3)*%
X183000000Y-63830000D03*
%TO.P,J12,2,Pin_2*%
%TO.N,Net-(J12-Pin_2)*%
X180460000Y-61290000D03*
D13*
%TO.P,J12,1,Pin_1*%
%TO.N,Net-(J12-Pin_1)*%
X180460000Y-63830000D03*
%TD*%
D14*
%TO.P,J13,2,P2*%
%TO.N,GND*%
X203460000Y-70665000D03*
D13*
%TO.P,J13,1,P1*%
X200920000Y-70665000D03*
%TD*%
D15*
%TO.P,J15,1,Pin_1*%
%TO.N,Net-(J15-Pin_1)*%
X173000000Y-52500000D03*
D16*
%TO.P,J15,2,Pin_2*%
%TO.N,Net-(J15-Pin_2)*%
X171000000Y-52500000D03*
%TO.P,J15,3,Pin_3*%
%TO.N,Net-(J15-Pin_3)*%
X169000000Y-52500000D03*
%TO.P,J15,4,Pin_4*%
%TO.N,Net-(J15-Pin_4)*%
X167000000Y-52500000D03*
%TO.P,J15,5,Pin_5*%
%TO.N,Net-(J15-Pin_5)*%
X165000000Y-52500000D03*
%TO.P,J15,6,Pin_6*%
%TO.N,Net-(J15-Pin_6)*%
X163000000Y-52500000D03*
%TO.P,J15,7,Pin_7*%
%TO.N,Net-(J15-Pin_7)*%
X161000000Y-52500000D03*
%TO.P,J15,8,Pin_8*%
%TO.N,Net-(J15-Pin_8)*%
X159000000Y-52500000D03*
%TO.P,J15,9,Pin_9*%
%TO.N,Net-(J15-Pin_9)*%
X157000000Y-52500000D03*
%TO.P,J15,10,Pin_10*%
%TO.N,Net-(J15-Pin_10)*%
X155000000Y-52500000D03*
%TO.P,J15,11,Pin_11*%
%TO.N,Net-(J15-Pin_11)*%
X153000000Y-52500000D03*
%TO.P,J15,12,Pin_12*%
%TO.N,Net-(J15-Pin_12)*%
X151000000Y-52500000D03*
%TO.P,J15,13,Pin_13*%
%TO.N,Net-(J15-Pin_13)*%
X149000000Y-52500000D03*
%TO.P,J15,14,Pin_14*%
%TO.N,Net-(J15-Pin_14)*%
X147000000Y-52500000D03*
%TO.P,J15,15,Pin_15*%
%TO.N,Net-(J15-Pin_15)*%
X145000000Y-52500000D03*
%TO.P,J15,16,Pin_16*%
%TO.N,Net-(J15-Pin_16)*%
X143000000Y-52500000D03*
%TO.P,J15,17,Pin_17*%
%TO.N,Net-(J15-Pin_17)*%
X141000000Y-52500000D03*
%TO.P,J15,18,Pin_18*%
%TO.N,Net-(J15-Pin_18)*%
X139000000Y-52500000D03*
%TO.P,J15,19,Pin_19*%
%TO.N,Net-(J15-Pin_19)*%
X137000000Y-52500000D03*
%TO.P,J15,20,Pin_20*%
%TO.N,Net-(J15-Pin_20)*%
X135000000Y-52500000D03*
%TO.P,J15,21,Pin_21*%
%TO.N,Net-(J15-Pin_21)*%
X133000000Y-52500000D03*
%TO.P,J15,22,Pin_22*%
%TO.N,Net-(J15-Pin_22)*%
X131000000Y-52500000D03*
%TO.P,J15,23,Pin_23*%
%TO.N,Net-(J15-Pin_23)*%
X129000000Y-52500000D03*
%TO.P,J15,24,Pin_24*%
%TO.N,Net-(J15-Pin_24)*%
X127000000Y-52500000D03*
%TD*%
D13*
%TO.P,J16,1,Pin_1*%
%TO.N,Net-(J15-Pin_5)*%
X162460000Y-63330000D03*
D14*
%TO.P,J16,2,Pin_2*%
%TO.N,Net-(J15-Pin_4)*%
X162460000Y-60790000D03*
%TO.P,J16,3,Pin_3*%
%TO.N,Net-(J15-Pin_6)*%
X165000000Y-63330000D03*
%TO.P,J16,4,Pin_4*%
%TO.N,Net-(J15-Pin_3)*%
X165000000Y-60790000D03*
%TO.P,J16,5,Pin_5*%
%TO.N,Net-(J15-Pin_7)*%
X167540000Y-63330000D03*
%TO.P,J16,6,Pin_6*%
%TO.N,Net-(J15-Pin_2)*%
X167540000Y-60790000D03*
%TO.P,J16,7,Pin_7*%
%TO.N,Net-(J15-Pin_8)*%
X170080000Y-63330000D03*
%TO.P,J16,8,Pin_8*%
%TO.N,Net-(J15-Pin_1)*%
X170080000Y-60790000D03*
%TD*%
D13*
%TO.P,J18,1,Pin_1*%
%TO.N,Net-(J15-Pin_13)*%
X147000000Y-63330000D03*
D14*
%TO.P,J18,2,Pin_2*%
%TO.N,Net-(J15-Pin_12)*%
X147000000Y-60790000D03*
%TO.P,J18,3,Pin_3*%
%TO.N,Net-(J15-Pin_14)*%
X149540000Y-63330000D03*
%TO.P,J18,4,Pin_4*%
%TO.N,Net-(J15-Pin_11)*%
X149540000Y-60790000D03*
%TO.P,J18,5,Pin_5*%
%TO.N,Net-(J15-Pin_15)*%
X152080000Y-63330000D03*
%TO.P,J18,6,Pin_6*%
%TO.N,Net-(J15-Pin_10)*%
X152080000Y-60790000D03*
%TO.P,J18,7,Pin_7*%
%TO.N,Net-(J15-Pin_16)*%
X154620000Y-63330000D03*
%TO.P,J18,8,Pin_8*%
%TO.N,Net-(J15-Pin_9)*%
X154620000Y-60790000D03*
%TD*%
D13*
%TO.P,J17,1,P1*%
%TO.N,Net-(J15-Pin_1)*%
X170500000Y-70500000D03*
D14*
%TO.P,J17,2,P2*%
%TO.N,Net-(J15-Pin_8)*%
X167960000Y-70500000D03*
%TD*%
D13*
%TO.P,J20,1,P1*%
%TO.N,GND*%
X152920000Y-70665000D03*
D14*
%TO.P,J20,2,P2*%
X155460000Y-70665000D03*
%TD*%
D13*
%TO.P,J3,1,Pin_1*%
%TO.N,Net-(J1-Pin_13)*%
X99000000Y-63330000D03*
D14*
%TO.P,J3,2,Pin_2*%
%TO.N,Net-(J1-Pin_12)*%
X99000000Y-60790000D03*
%TO.P,J3,3,Pin_3*%
%TO.N,Net-(J1-Pin_14)*%
X101540000Y-63330000D03*
%TO.P,J3,4,Pin_4*%
%TO.N,Net-(J1-Pin_11)*%
X101540000Y-60790000D03*
%TO.P,J3,5,Pin_5*%
%TO.N,Net-(J1-Pin_15)*%
X104080000Y-63330000D03*
%TO.P,J3,6,Pin_6*%
%TO.N,Net-(J1-Pin_10)*%
X104080000Y-60790000D03*
%TO.P,J3,7,Pin_7*%
%TO.N,Net-(J1-Pin_16)*%
X106620000Y-63330000D03*
%TO.P,J3,8,Pin_8*%
%TO.N,Net-(J1-Pin_9)*%
X106620000Y-60790000D03*
%TD*%
D13*
%TO.P,J5,1,P1*%
%TO.N,Net-(J1-Pin_1)*%
X122500000Y-70500000D03*
D14*
%TO.P,J5,2,P2*%
%TO.N,Net-(J1-Pin_8)*%
X119960000Y-70500000D03*
%TD*%
D13*
%TO.P,J6,1,P1*%
%TO.N,Net-(J1-Pin_17)*%
X91775000Y-70225000D03*
D14*
%TO.P,J6,2,P2*%
%TO.N,Net-(J1-Pin_24)*%
X89235000Y-70225000D03*
%TD*%
D13*
%TO.P,J4,1,Pin_1*%
%TO.N,Net-(J1-Pin_21)*%
X84460000Y-63830000D03*
D14*
%TO.P,J4,2,Pin_2*%
%TO.N,Net-(J1-Pin_20)*%
X84460000Y-61290000D03*
%TO.P,J4,3,Pin_3*%
%TO.N,Net-(J1-Pin_22)*%
X87000000Y-63830000D03*
%TO.P,J4,4,Pin_4*%
%TO.N,Net-(J1-Pin_19)*%
X87000000Y-61290000D03*
%TO.P,J4,5,Pin_5*%
%TO.N,Net-(J1-Pin_23)*%
X89540000Y-63830000D03*
%TO.P,J4,6,Pin_6*%
%TO.N,Net-(J1-Pin_18)*%
X89540000Y-61290000D03*
%TO.P,J4,7,Pin_7*%
%TO.N,Net-(J1-Pin_24)*%
X92080000Y-63830000D03*
%TO.P,J4,8,Pin_8*%
%TO.N,Net-(J1-Pin_17)*%
X92080000Y-61290000D03*
%TD*%
D13*
%TO.P,J2,1,Pin_1*%
%TO.N,Net-(J1-Pin_5)*%
X114460000Y-63330000D03*
D14*
%TO.P,J2,2,Pin_2*%
%TO.N,Net-(J1-Pin_4)*%
X114460000Y-60790000D03*
%TO.P,J2,3,Pin_3*%
%TO.N,Net-(J1-Pin_6)*%
X117000000Y-63330000D03*
%TO.P,J2,4,Pin_4*%
%TO.N,Net-(J1-Pin_3)*%
X117000000Y-60790000D03*
%TO.P,J2,5,Pin_5*%
%TO.N,Net-(J1-Pin_7)*%
X119540000Y-63330000D03*
%TO.P,J2,6,Pin_6*%
%TO.N,Net-(J1-Pin_2)*%
X119540000Y-60790000D03*
%TO.P,J2,7,Pin_7*%
%TO.N,Net-(J1-Pin_8)*%
X122080000Y-63330000D03*
%TO.P,J2,8,Pin_8*%
%TO.N,Net-(J1-Pin_1)*%
X122080000Y-60790000D03*
%TD*%
D15*
%TO.P,J1,1,Pin_1*%
%TO.N,Net-(J1-Pin_1)*%
X125000000Y-52500000D03*
D16*
%TO.P,J1,2,Pin_2*%
%TO.N,Net-(J1-Pin_2)*%
X123000000Y-52500000D03*
%TO.P,J1,3,Pin_3*%
%TO.N,Net-(J1-Pin_3)*%
X121000000Y-52500000D03*
%TO.P,J1,4,Pin_4*%
%TO.N,Net-(J1-Pin_4)*%
X119000000Y-52500000D03*
%TO.P,J1,5,Pin_5*%
%TO.N,Net-(J1-Pin_5)*%
X117000000Y-52500000D03*
%TO.P,J1,6,Pin_6*%
%TO.N,Net-(J1-Pin_6)*%
X115000000Y-52500000D03*
%TO.P,J1,7,Pin_7*%
%TO.N,Net-(J1-Pin_7)*%
X113000000Y-52500000D03*
%TO.P,J1,8,Pin_8*%
%TO.N,Net-(J1-Pin_8)*%
X111000000Y-52500000D03*
%TO.P,J1,9,Pin_9*%
%TO.N,Net-(J1-Pin_9)*%
X109000000Y-52500000D03*
%TO.P,J1,10,Pin_10*%
%TO.N,Net-(J1-Pin_10)*%
X107000000Y-52500000D03*
%TO.P,J1,11,Pin_11*%
%TO.N,Net-(J1-Pin_11)*%
X105000000Y-52500000D03*
%TO.P,J1,12,Pin_12*%
%TO.N,Net-(J1-Pin_12)*%
X103000000Y-52500000D03*
%TO.P,J1,13,Pin_13*%
%TO.N,Net-(J1-Pin_13)*%
X101000000Y-52500000D03*
%TO.P,J1,14,Pin_14*%
%TO.N,Net-(J1-Pin_14)*%
X99000000Y-52500000D03*
%TO.P,J1,15,Pin_15*%
%TO.N,Net-(J1-Pin_15)*%
X97000000Y-52500000D03*
%TO.P,J1,16,Pin_16*%
%TO.N,Net-(J1-Pin_16)*%
X95000000Y-52500000D03*
%TO.P,J1,17,Pin_17*%
%TO.N,Net-(J1-Pin_17)*%
X93000000Y-52500000D03*
%TO.P,J1,18,Pin_18*%
%TO.N,Net-(J1-Pin_18)*%
X91000000Y-52500000D03*
%TO.P,J1,19,Pin_19*%
%TO.N,Net-(J1-Pin_19)*%
X89000000Y-52500000D03*
%TO.P,J1,20,Pin_20*%
%TO.N,Net-(J1-Pin_20)*%
X87000000Y-52500000D03*
%TO.P,J1,21,Pin_21*%
%TO.N,Net-(J1-Pin_21)*%
X85000000Y-52500000D03*
%TO.P,J1,22,Pin_22*%
%TO.N,Net-(J1-Pin_22)*%
X83000000Y-52500000D03*
%TO.P,J1,23,Pin_23*%
%TO.N,Net-(J1-Pin_23)*%
X81000000Y-52500000D03*
%TO.P,J1,24,Pin_24*%
%TO.N,Net-(J1-Pin_24)*%
X79000000Y-52500000D03*
%TD*%
D14*
%TO.P,J7,2,P2*%
%TO.N,GND*%
X107460000Y-70665000D03*
D13*
%TO.P,J7,1,P1*%
X104920000Y-70665000D03*
%TD*%
%TO.P,J19,1,Pin_1*%
%TO.N,Net-(J15-Pin_21)*%
X132460000Y-63830000D03*
D14*
%TO.P,J19,2,Pin_2*%
%TO.N,Net-(J15-Pin_20)*%
X132460000Y-61290000D03*
%TO.P,J19,3,Pin_3*%
%TO.N,Net-(J15-Pin_22)*%
X135000000Y-63830000D03*
%TO.P,J19,4,Pin_4*%
%TO.N,Net-(J15-Pin_19)*%
X135000000Y-61290000D03*
%TO.P,J19,5,Pin_5*%
%TO.N,Net-(J15-Pin_23)*%
X137540000Y-63830000D03*
%TO.P,J19,6,Pin_6*%
%TO.N,Net-(J15-Pin_18)*%
X137540000Y-61290000D03*
%TO.P,J19,7,Pin_7*%
%TO.N,Net-(J15-Pin_24)*%
X140080000Y-63830000D03*
%TO.P,J19,8,Pin_8*%
%TO.N,Net-(J15-Pin_17)*%
X140080000Y-61290000D03*
%TD*%
D13*
%TO.P,J21,1,P1*%
%TO.N,Net-(J15-Pin_17)*%
X139775000Y-70225000D03*
D14*
%TO.P,J21,2,P2*%
%TO.N,Net-(J15-Pin_24)*%
X137235000Y-70225000D03*
%TD*%
D17*
%TO.N,Net-(J12-Pin_3)*%
X179109000Y-65181000D02*
X181649000Y-65181000D01*
X178176000Y-64248000D02*
X179109000Y-65181000D01*
X181649000Y-65181000D02*
X183000000Y-63830000D01*
X178176000Y-53324000D02*
X178176000Y-64248000D01*
X179000000Y-52500000D02*
X178176000Y-53324000D01*
%TO.N,Net-(J15-Pin_2)*%
X171000000Y-57330000D02*
X171000000Y-52500000D01*
X167540000Y-60790000D02*
X171000000Y-57330000D01*
%TO.N,Net-(J15-Pin_1)*%
X173000000Y-57870000D02*
X170080000Y-60790000D01*
X173000000Y-52500000D02*
X173000000Y-57870000D01*
%TO.N,Net-(J1-Pin_16)*%
X97068272Y-66083000D02*
X103867000Y-66083000D01*
X95000000Y-52500000D02*
X95000000Y-64014728D01*
X95000000Y-64014728D02*
X97068272Y-66083000D01*
X103867000Y-66083000D02*
X106620000Y-63330000D01*
%TO.N,Net-(J1-Pin_8)*%
X111000000Y-64554728D02*
X112936272Y-66491000D01*
X111000000Y-52500000D02*
X111000000Y-64554728D01*
X112936272Y-66491000D02*
X118919000Y-66491000D01*
%TO.N,Net-(J1-Pin_24)*%
X79000000Y-63054728D02*
X79000000Y-52500000D01*
X82528272Y-66583000D02*
X79000000Y-63054728D01*
X89327000Y-66583000D02*
X82528272Y-66583000D01*
%TO.N,Net-(J1-Pin_23)*%
X87488000Y-65882000D02*
X89540000Y-63830000D01*
X81000000Y-64063364D02*
X82818636Y-65882000D01*
X82818636Y-65882000D02*
X87488000Y-65882000D01*
X81000000Y-52500000D02*
X81000000Y-64063364D01*
%TO.N,Net-(J15-Pin_24)*%
X127000000Y-63054728D02*
X127000000Y-52500000D01*
X130528272Y-66583000D02*
X127000000Y-63054728D01*
X130528272Y-66583000D02*
X137327000Y-66583000D01*
%TO.N,Net-(J15-Pin_23)*%
X129000000Y-64063364D02*
X129000000Y-52500000D01*
X130818636Y-65882000D02*
X129000000Y-64063364D01*
%TO.N,Net-(J15-Pin_22)*%
X130000000Y-53500000D02*
X131000000Y-52500000D01*
X130000000Y-64072000D02*
X130000000Y-53500000D01*
X130964000Y-65036000D02*
X130000000Y-64072000D01*
X130964000Y-65036000D02*
X131109000Y-65181000D01*
%TO.N,Net-(J15-Pin_21)*%
X131109000Y-62479000D02*
X132460000Y-63830000D01*
X131109000Y-54391000D02*
X131109000Y-62479000D01*
X133000000Y-52500000D02*
X131109000Y-54391000D01*
%TO.N,Net-(J15-Pin_20)*%
X135000000Y-58750000D02*
X132460000Y-61290000D01*
X135000000Y-52500000D02*
X135000000Y-58750000D01*
%TO.N,Net-(J15-Pin_19)*%
X137000000Y-59290000D02*
X135000000Y-61290000D01*
X137000000Y-52500000D02*
X137000000Y-59290000D01*
%TO.N,Net-(J15-Pin_18)*%
X139000000Y-59830000D02*
X139000000Y-52500000D01*
X137540000Y-61290000D02*
X139000000Y-59830000D01*
%TO.N,Net-(J15-Pin_17)*%
X140080000Y-53420000D02*
X141000000Y-52500000D01*
X140080000Y-61290000D02*
X140080000Y-53420000D01*
%TO.N,Net-(J15-Pin_16)*%
X142992636Y-62992636D02*
X143000000Y-62985272D01*
X142992636Y-64007364D02*
X142992636Y-62992636D01*
X143000000Y-62985272D02*
X143000000Y-52500000D01*
X142992636Y-64007364D02*
X145068272Y-66083000D01*
%TO.N,Net-(J12-Pin_7)*%
X178528272Y-66583000D02*
X185327000Y-66583000D01*
X175000000Y-63054728D02*
X178528272Y-66583000D01*
X175000000Y-52500000D02*
X175000000Y-63054728D01*
%TO.N,Net-(J12-Pin_5)*%
X178818636Y-65882000D02*
X183488000Y-65882000D01*
X183488000Y-65882000D02*
X185540000Y-63830000D01*
X177000000Y-64063364D02*
X178818636Y-65882000D01*
X177000000Y-52500000D02*
X177000000Y-64063364D01*
%TO.N,Net-(J12-Pin_1)*%
X179109000Y-54391000D02*
X181000000Y-52500000D01*
X179109000Y-62479000D02*
X179109000Y-54391000D01*
X180460000Y-63830000D02*
X179109000Y-62479000D01*
%TO.N,Net-(J12-Pin_2)*%
X183000000Y-58750000D02*
X183000000Y-52500000D01*
X180460000Y-61290000D02*
X183000000Y-58750000D01*
%TO.N,Net-(J12-Pin_4)*%
X185000000Y-59290000D02*
X185000000Y-52500000D01*
X183000000Y-61290000D02*
X185000000Y-59290000D01*
%TO.N,Net-(J12-Pin_6)*%
X187000000Y-59830000D02*
X187000000Y-52500000D01*
X185540000Y-61290000D02*
X187000000Y-59830000D01*
%TO.N,Net-(J12-Pin_8)*%
X189000000Y-60370000D02*
X189000000Y-52500000D01*
X188080000Y-61290000D02*
X189000000Y-60370000D01*
%TO.N,Net-(J10-P2)*%
X208936272Y-66491000D02*
X214919000Y-66491000D01*
X207000000Y-64554728D02*
X208936272Y-66491000D01*
X207000000Y-52500000D02*
X207000000Y-64554728D01*
%TO.N,Net-(J11-Pin_7)*%
X191000000Y-64000000D02*
X191000000Y-52500000D01*
X190992636Y-64007364D02*
X191000000Y-64000000D01*
X190992636Y-64007364D02*
X193068272Y-66083000D01*
%TO.N,Net-(J11-Pin_3)*%
X193649000Y-64681000D02*
X196189000Y-64681000D01*
X192948000Y-63980000D02*
X193649000Y-64681000D01*
X192948000Y-54552000D02*
X192948000Y-63980000D01*
X196189000Y-64681000D02*
X197540000Y-63330000D01*
X195000000Y-52500000D02*
X192948000Y-54552000D01*
%TO.N,Net-(J11-Pin_1)*%
X193649000Y-55851000D02*
X197000000Y-52500000D01*
X193649000Y-61979000D02*
X193649000Y-55851000D01*
X195000000Y-63330000D02*
X193649000Y-61979000D01*
%TO.N,Net-(J15-Pin_10)*%
X155000000Y-57870000D02*
X155000000Y-52500000D01*
X152080000Y-60790000D02*
X155000000Y-57870000D01*
%TO.N,Net-(J15-Pin_11)*%
X153000000Y-57330000D02*
X153000000Y-52500000D01*
X149540000Y-60790000D02*
X153000000Y-57330000D01*
%TO.N,Net-(J15-Pin_9)*%
X157000000Y-58410000D02*
X157000000Y-52500000D01*
X154620000Y-60790000D02*
X157000000Y-58410000D01*
%TO.N,Net-(J8-Pin_6)*%
X208408000Y-55092000D02*
X211000000Y-52500000D01*
X209109000Y-64681000D02*
X208408000Y-63980000D01*
X208408000Y-63980000D02*
X208408000Y-55092000D01*
X211649000Y-64681000D02*
X209109000Y-64681000D01*
X213000000Y-63330000D02*
X211649000Y-64681000D01*
%TO.N,Net-(J8-Pin_4)*%
X215000000Y-56250000D02*
X215000000Y-52500000D01*
X210460000Y-60790000D02*
X215000000Y-56250000D01*
%TO.N,Net-(J8-Pin_2)*%
X215540000Y-60790000D02*
X219000000Y-57330000D01*
X219000000Y-57330000D02*
X219000000Y-52500000D01*
%TO.N,Net-(J8-Pin_3)*%
X217000000Y-56790000D02*
X217000000Y-52500000D01*
X213000000Y-60790000D02*
X217000000Y-56790000D01*
%TO.N,Net-(J10-P1)*%
X221000000Y-57870000D02*
X221000000Y-52500000D01*
X218080000Y-60790000D02*
X221000000Y-57870000D01*
%TO.N,Net-(J8-Pin_5)*%
X209109000Y-61979000D02*
X209109000Y-56391000D01*
X209109000Y-56391000D02*
X213000000Y-52500000D01*
%TO.N,Net-(J8-Pin_7)*%
X207707000Y-53793000D02*
X209000000Y-52500000D01*
X207707000Y-64270364D02*
X207707000Y-53793000D01*
%TO.N,Net-(J11-Pin_6)*%
X203000000Y-57870000D02*
X203000000Y-52500000D01*
X200080000Y-60790000D02*
X203000000Y-57870000D01*
%TO.N,Net-(J11-Pin_8)*%
X205000000Y-58410000D02*
X205000000Y-52500000D01*
X202620000Y-60790000D02*
X205000000Y-58410000D01*
%TO.N,Net-(J11-Pin_4)*%
X201000000Y-57330000D02*
X201000000Y-52500000D01*
X197540000Y-60790000D02*
X201000000Y-57330000D01*
%TO.N,Net-(J11-Pin_2)*%
X199000000Y-56790000D02*
X199000000Y-52500000D01*
X195000000Y-60790000D02*
X199000000Y-56790000D01*
%TO.N,Net-(J1-Pin_19)*%
X89000000Y-59290000D02*
X89000000Y-52500000D01*
X87000000Y-61290000D02*
X89000000Y-59290000D01*
%TO.N,Net-(J1-Pin_20)*%
X87000000Y-58750000D02*
X87000000Y-52500000D01*
X84460000Y-61290000D02*
X87000000Y-58750000D01*
%TO.N,Net-(J1-Pin_22)*%
X81825000Y-53675000D02*
X83000000Y-52500000D01*
X81825000Y-63897000D02*
X81825000Y-53675000D01*
%TO.N,Net-(J1-Pin_21)*%
X83109000Y-54391000D02*
X85000000Y-52500000D01*
X83109000Y-62479000D02*
X83109000Y-54391000D01*
%TO.N,Net-(J1-Pin_18)*%
X91000000Y-59830000D02*
X91000000Y-52500000D01*
X89540000Y-61290000D02*
X91000000Y-59830000D01*
%TO.N,Net-(J1-Pin_17)*%
X93000000Y-60370000D02*
X93000000Y-52500000D01*
X92080000Y-61290000D02*
X93000000Y-60370000D01*
%TO.N,Net-(J1-Pin_12)*%
X103000000Y-56790000D02*
X103000000Y-52500000D01*
X99000000Y-60790000D02*
X103000000Y-56790000D01*
%TO.N,Net-(J1-Pin_9)*%
X109000000Y-58410000D02*
X109000000Y-52500000D01*
X106620000Y-60790000D02*
X109000000Y-58410000D01*
%TO.N,Net-(J1-Pin_10)*%
X107000000Y-57870000D02*
X107000000Y-52500000D01*
X104080000Y-60790000D02*
X107000000Y-57870000D01*
%TO.N,Net-(J1-Pin_11)*%
X105000000Y-57330000D02*
X105000000Y-52500000D01*
X101540000Y-60790000D02*
X105000000Y-57330000D01*
%TO.N,Net-(J1-Pin_7)*%
X111707000Y-53793000D02*
X113000000Y-52500000D01*
X111707000Y-64270364D02*
X111707000Y-53793000D01*
%TO.N,Net-(J1-Pin_4)*%
X119000000Y-56250000D02*
X119000000Y-52500000D01*
X114460000Y-60790000D02*
X119000000Y-56250000D01*
%TO.N,Net-(J1-Pin_6)*%
X112408000Y-63980000D02*
X112408000Y-55092000D01*
X112408000Y-55092000D02*
X115000000Y-52500000D01*
X113109000Y-64681000D02*
X112408000Y-63980000D01*
X115649000Y-64681000D02*
X113109000Y-64681000D01*
X117000000Y-63330000D02*
X115649000Y-64681000D01*
%TO.N,Net-(J1-Pin_5)*%
X113109000Y-56391000D02*
X117000000Y-52500000D01*
X113109000Y-61979000D02*
X113109000Y-56391000D01*
%TO.N,Net-(J1-Pin_13)*%
X97649000Y-55851000D02*
X101000000Y-52500000D01*
X97649000Y-61979000D02*
X97649000Y-55851000D01*
%TO.N,Net-(J1-Pin_14)*%
X96948000Y-54552000D02*
X99000000Y-52500000D01*
X97649000Y-64681000D02*
X96948000Y-63980000D01*
X100189000Y-64681000D02*
X97649000Y-64681000D01*
X101540000Y-63330000D02*
X100189000Y-64681000D01*
X96948000Y-63980000D02*
X96948000Y-54552000D01*
%TO.N,Net-(J1-Pin_15)*%
X95825000Y-53675000D02*
X97000000Y-52500000D01*
X95825000Y-63848364D02*
X95825000Y-53675000D01*
%TO.N,Net-(J15-Pin_7)*%
X159707000Y-64270364D02*
X159707000Y-53793000D01*
X159707000Y-53793000D02*
X161000000Y-52500000D01*
%TO.N,Net-(J15-Pin_8)*%
X159000000Y-63554728D02*
X159000000Y-52500000D01*
X158500000Y-64054728D02*
X159000000Y-63554728D01*
%TO.N,Net-(J15-Pin_5)*%
X161109000Y-56391000D02*
X165000000Y-52500000D01*
X161109000Y-61979000D02*
X161109000Y-56391000D01*
%TO.N,Net-(J15-Pin_4)*%
X167000000Y-56250000D02*
X167000000Y-52500000D01*
X162460000Y-60790000D02*
X167000000Y-56250000D01*
%TO.N,Net-(J15-Pin_3)*%
X169000000Y-56790000D02*
X169000000Y-52500000D01*
X165000000Y-60790000D02*
X169000000Y-56790000D01*
%TO.N,Net-(J15-Pin_6)*%
X160408000Y-63980000D02*
X160408000Y-55092000D01*
X160408000Y-55092000D02*
X163000000Y-52500000D01*
X161109000Y-64681000D02*
X160408000Y-63980000D01*
X163649000Y-64681000D02*
X161109000Y-64681000D01*
X165000000Y-63330000D02*
X163649000Y-64681000D01*
%TO.N,Net-(J1-Pin_3)*%
X117000000Y-60790000D02*
X121000000Y-56790000D01*
X121000000Y-56790000D02*
X121000000Y-52500000D01*
%TO.N,Net-(J1-Pin_2)*%
X119540000Y-60790000D02*
X123000000Y-57330000D01*
X123000000Y-57330000D02*
X123000000Y-52500000D01*
%TO.N,Net-(J1-Pin_1)*%
X125000000Y-57870000D02*
X125000000Y-52500000D01*
X122080000Y-60790000D02*
X125000000Y-57870000D01*
%TO.N,Net-(J15-Pin_13)*%
X145649000Y-55851000D02*
X149000000Y-52500000D01*
X145649000Y-61979000D02*
X145649000Y-55851000D01*
%TO.N,Net-(J15-Pin_14)*%
X144948000Y-54552000D02*
X147000000Y-52500000D01*
X145649000Y-64681000D02*
X144948000Y-63980000D01*
X148189000Y-64681000D02*
X145649000Y-64681000D01*
X144948000Y-63980000D02*
X144948000Y-54552000D01*
X149540000Y-63330000D02*
X148189000Y-64681000D01*
%TO.N,Net-(J15-Pin_15)*%
X143825000Y-63848364D02*
X143825000Y-53675000D01*
X143825000Y-53675000D02*
X145000000Y-52500000D01*
%TO.N,Net-(J15-Pin_12)*%
X147000000Y-60790000D02*
X151000000Y-56790000D01*
X151000000Y-56790000D02*
X151000000Y-52500000D01*
%TO.N,Net-(J8-Pin_7)*%
X213080000Y-65790000D02*
X215540000Y-63330000D01*
X207707000Y-64270364D02*
X209226636Y-65790000D01*
%TO.N,Net-(J12-Pin_8)*%
X189431000Y-62641000D02*
X189431000Y-68569000D01*
%TO.N,Net-(J8-Pin_5)*%
X209109000Y-61979000D02*
X210460000Y-63330000D01*
%TO.N,Net-(J10-P2)*%
X214919000Y-69459000D02*
X215960000Y-70500000D01*
%TO.N,Net-(J12-Pin_8)*%
X188080000Y-61290000D02*
X189431000Y-62641000D01*
%TO.N,Net-(J11-Pin_7)*%
X193068272Y-66083000D02*
X199867000Y-66083000D01*
X199867000Y-66083000D02*
X202620000Y-63330000D01*
%TO.N,Net-(J10-P2)*%
X214919000Y-66491000D02*
X214919000Y-69459000D01*
%TO.N,Net-(J12-Pin_7)*%
X185235000Y-66675000D02*
X185235000Y-70225000D01*
X185327000Y-66583000D02*
X185235000Y-66675000D01*
%TO.N,Net-(J12-Pin_8)*%
X189431000Y-68569000D02*
X187775000Y-70225000D01*
%TO.N,Net-(J8-Pin_7)*%
X209226636Y-65790000D02*
X213080000Y-65790000D01*
%TO.N,Net-(J10-P1)*%
X218080000Y-60790000D02*
X219431000Y-62141000D01*
%TO.N,Net-(J12-Pin_7)*%
X185327000Y-66583000D02*
X188080000Y-63830000D01*
%TO.N,Net-(J10-P1)*%
X219431000Y-62141000D02*
X219431000Y-69569000D01*
X219431000Y-69569000D02*
X218500000Y-70500000D01*
%TO.N,Net-(J10-P2)*%
X214919000Y-66491000D02*
X218080000Y-63330000D01*
%TO.N,Net-(J15-Pin_22)*%
X131109000Y-65181000D02*
X133649000Y-65181000D01*
X133649000Y-65181000D02*
X135000000Y-63830000D01*
%TO.N,Net-(J15-Pin_23)*%
X130818636Y-65882000D02*
X135488000Y-65882000D01*
X135488000Y-65882000D02*
X137540000Y-63830000D01*
%TO.N,Net-(J15-Pin_8)*%
X158500000Y-64054728D02*
X160936272Y-66491000D01*
%TO.N,Net-(J15-Pin_1)*%
X171431000Y-69569000D02*
X170500000Y-70500000D01*
%TO.N,Net-(J15-Pin_8)*%
X166919000Y-66491000D02*
X170080000Y-63330000D01*
%TO.N,Net-(J15-Pin_17)*%
X141431000Y-62641000D02*
X141431000Y-68569000D01*
%TO.N,Net-(J15-Pin_7)*%
X161226636Y-65790000D02*
X165080000Y-65790000D01*
%TO.N,Net-(J15-Pin_17)*%
X141431000Y-68569000D02*
X139775000Y-70225000D01*
%TO.N,Net-(J15-Pin_15)*%
X145358636Y-65382000D02*
X150028000Y-65382000D01*
%TO.N,Net-(J15-Pin_8)*%
X160936272Y-66491000D02*
X166919000Y-66491000D01*
%TO.N,Net-(J15-Pin_15)*%
X150028000Y-65382000D02*
X152080000Y-63330000D01*
%TO.N,Net-(J15-Pin_24)*%
X137235000Y-66675000D02*
X137235000Y-70225000D01*
%TO.N,Net-(J15-Pin_15)*%
X143825000Y-63848364D02*
X145358636Y-65382000D01*
%TO.N,Net-(J15-Pin_17)*%
X140080000Y-61290000D02*
X141431000Y-62641000D01*
%TO.N,Net-(J15-Pin_16)*%
X151867000Y-66083000D02*
X154620000Y-63330000D01*
%TO.N,Net-(J15-Pin_7)*%
X159707000Y-64270364D02*
X161226636Y-65790000D01*
%TO.N,Net-(J15-Pin_24)*%
X137327000Y-66583000D02*
X137235000Y-66675000D01*
%TO.N,Net-(J15-Pin_8)*%
X166919000Y-66491000D02*
X166919000Y-69459000D01*
%TO.N,Net-(J15-Pin_5)*%
X161109000Y-61979000D02*
X162460000Y-63330000D01*
%TO.N,Net-(J15-Pin_1)*%
X170080000Y-60790000D02*
X171431000Y-62141000D01*
X171431000Y-62141000D02*
X171431000Y-69569000D01*
%TO.N,Net-(J15-Pin_16)*%
X145068272Y-66083000D02*
X151867000Y-66083000D01*
%TO.N,Net-(J15-Pin_24)*%
X137327000Y-66583000D02*
X140080000Y-63830000D01*
%TO.N,Net-(J15-Pin_8)*%
X166919000Y-69459000D02*
X167960000Y-70500000D01*
%TO.N,Net-(J15-Pin_13)*%
X145649000Y-61979000D02*
X147000000Y-63330000D01*
%TO.N,Net-(J15-Pin_7)*%
X165080000Y-65790000D02*
X167540000Y-63330000D01*
%TO.N,Net-(J1-Pin_7)*%
X117080000Y-65790000D02*
X119540000Y-63330000D01*
%TO.N,Net-(J1-Pin_13)*%
X97649000Y-61979000D02*
X99000000Y-63330000D01*
%TO.N,Net-(J1-Pin_8)*%
X118919000Y-69459000D02*
X119960000Y-70500000D01*
%TO.N,Net-(J1-Pin_24)*%
X89327000Y-66583000D02*
X92080000Y-63830000D01*
%TO.N,Net-(J1-Pin_1)*%
X123431000Y-69569000D02*
X122500000Y-70500000D01*
%TO.N,Net-(J1-Pin_8)*%
X118919000Y-66491000D02*
X122080000Y-63330000D01*
%TO.N,Net-(J1-Pin_17)*%
X93431000Y-62641000D02*
X93431000Y-68569000D01*
%TO.N,Net-(J1-Pin_7)*%
X113226636Y-65790000D02*
X117080000Y-65790000D01*
%TO.N,Net-(J1-Pin_17)*%
X93431000Y-68569000D02*
X91775000Y-70225000D01*
%TO.N,Net-(J1-Pin_15)*%
X97358636Y-65382000D02*
X102028000Y-65382000D01*
%TO.N,Net-(J1-Pin_22)*%
X83109000Y-65181000D02*
X85649000Y-65181000D01*
%TO.N,Net-(J1-Pin_15)*%
X102028000Y-65382000D02*
X104080000Y-63330000D01*
%TO.N,Net-(J1-Pin_24)*%
X89235000Y-66675000D02*
X89235000Y-70225000D01*
%TO.N,Net-(J1-Pin_15)*%
X95825000Y-63848364D02*
X97358636Y-65382000D01*
%TO.N,Net-(J1-Pin_17)*%
X92080000Y-61290000D02*
X93431000Y-62641000D01*
%TO.N,Net-(J1-Pin_7)*%
X111707000Y-64270364D02*
X113226636Y-65790000D01*
%TO.N,Net-(J1-Pin_24)*%
X89327000Y-66583000D02*
X89235000Y-66675000D01*
%TO.N,Net-(J1-Pin_8)*%
X118919000Y-66491000D02*
X118919000Y-69459000D01*
%TO.N,Net-(J1-Pin_21)*%
X83109000Y-62479000D02*
X84460000Y-63830000D01*
%TO.N,Net-(J1-Pin_22)*%
X81825000Y-63897000D02*
X83109000Y-65181000D01*
%TO.N,Net-(J1-Pin_5)*%
X113109000Y-61979000D02*
X114460000Y-63330000D01*
%TO.N,Net-(J1-Pin_1)*%
X122080000Y-60790000D02*
X123431000Y-62141000D01*
X123431000Y-62141000D02*
X123431000Y-69569000D01*
%TO.N,Net-(J1-Pin_22)*%
X85649000Y-65181000D02*
X87000000Y-63830000D01*
%TO.N,Net-(J11-Pin_5)*%
X191701000Y-53799000D02*
X193000000Y-52500000D01*
X191701000Y-63724364D02*
X191701000Y-53799000D01*
X193358636Y-65382000D02*
X191701000Y-63724364D01*
X198028000Y-65382000D02*
X193358636Y-65382000D01*
X200080000Y-63330000D02*
X198028000Y-65382000D01*
%TD*%
M02*
