%TF.GenerationSoftware,KiCad,Pcbnew,9.0.0*%
%TF.CreationDate,2025-09-02T16:05:32+12:00*%
%TF.ProjectId,conversion board,636f6e76-6572-4736-996f-6e20626f6172,rev?*%
%TF.SameCoordinates,Original*%
%TF.FileFunction,Soldermask,Top*%
%TF.FilePolarity,Negative*%
%FSLAX46Y46*%
G04 Gerber Fmt 4.6, Leading zero omitted, Abs format (unit mm)*
G04 Created by KiCad (PCBNEW 9.0.0) date 2025-09-02 16:05:32*
%MOMM*%
%LPD*%
G01*
G04 APERTURE LIST*
%ADD10R,1.700000X1.700000*%
%ADD11O,1.700000X1.700000*%
%ADD12R,1.350000X1.350000*%
%ADD13O,1.350000X1.350000*%
G04 APERTURE END LIST*
D10*
%TO.C,J10*%
X218500000Y-70500000D03*
D11*
X215960000Y-70500000D03*
%TD*%
%TO.C,J9*%
X218080000Y-60790000D03*
X218080000Y-63330000D03*
X215540000Y-60790000D03*
X215540000Y-63330000D03*
X213000000Y-60790000D03*
X213000000Y-63330000D03*
X210460000Y-60790000D03*
D10*
X210460000Y-63330000D03*
%TD*%
%TO.C,J11*%
X195000000Y-63330000D03*
D11*
X195000000Y-60790000D03*
X197540000Y-63330000D03*
X197540000Y-60790000D03*
X200080000Y-63330000D03*
X200080000Y-60790000D03*
X202620000Y-63330000D03*
X202620000Y-60790000D03*
%TD*%
D12*
%TO.C,J8*%
X221000000Y-52500000D03*
D13*
X219000000Y-52500000D03*
X217000000Y-52500000D03*
X215000000Y-52500000D03*
X213000000Y-52500000D03*
X211000000Y-52500000D03*
X209000000Y-52500000D03*
X207000000Y-52500000D03*
X205000000Y-52500000D03*
X203000000Y-52500000D03*
X201000000Y-52500000D03*
X199000000Y-52500000D03*
X197000000Y-52500000D03*
X195000000Y-52500000D03*
X193000000Y-52500000D03*
X191000000Y-52500000D03*
X189000000Y-52500000D03*
X187000000Y-52500000D03*
X185000000Y-52500000D03*
X183000000Y-52500000D03*
X181000000Y-52500000D03*
X179000000Y-52500000D03*
X177000000Y-52500000D03*
X175000000Y-52500000D03*
%TD*%
D11*
%TO.C,J14*%
X185235000Y-70225000D03*
D10*
X187775000Y-70225000D03*
%TD*%
D11*
%TO.C,J12*%
X188080000Y-61290000D03*
X188080000Y-63830000D03*
X185540000Y-61290000D03*
X185540000Y-63830000D03*
X183000000Y-61290000D03*
X183000000Y-63830000D03*
X180460000Y-61290000D03*
D10*
X180460000Y-63830000D03*
%TD*%
D11*
%TO.C,J13*%
X203460000Y-70665000D03*
D10*
X200920000Y-70665000D03*
%TD*%
D12*
%TO.C,J15*%
X173000000Y-52500000D03*
D13*
X171000000Y-52500000D03*
X169000000Y-52500000D03*
X167000000Y-52500000D03*
X165000000Y-52500000D03*
X163000000Y-52500000D03*
X161000000Y-52500000D03*
X159000000Y-52500000D03*
X157000000Y-52500000D03*
X155000000Y-52500000D03*
X153000000Y-52500000D03*
X151000000Y-52500000D03*
X149000000Y-52500000D03*
X147000000Y-52500000D03*
X145000000Y-52500000D03*
X143000000Y-52500000D03*
X141000000Y-52500000D03*
X139000000Y-52500000D03*
X137000000Y-52500000D03*
X135000000Y-52500000D03*
X133000000Y-52500000D03*
X131000000Y-52500000D03*
X129000000Y-52500000D03*
X127000000Y-52500000D03*
%TD*%
D10*
%TO.C,J16*%
X162460000Y-63330000D03*
D11*
X162460000Y-60790000D03*
X165000000Y-63330000D03*
X165000000Y-60790000D03*
X167540000Y-63330000D03*
X167540000Y-60790000D03*
X170080000Y-63330000D03*
X170080000Y-60790000D03*
%TD*%
D10*
%TO.C,J18*%
X147000000Y-63330000D03*
D11*
X147000000Y-60790000D03*
X149540000Y-63330000D03*
X149540000Y-60790000D03*
X152080000Y-63330000D03*
X152080000Y-60790000D03*
X154620000Y-63330000D03*
X154620000Y-60790000D03*
%TD*%
D10*
%TO.C,J17*%
X170500000Y-70500000D03*
D11*
X167960000Y-70500000D03*
%TD*%
D10*
%TO.C,J20*%
X152920000Y-70665000D03*
D11*
X155460000Y-70665000D03*
%TD*%
D10*
%TO.C,J3*%
X99000000Y-63330000D03*
D11*
X99000000Y-60790000D03*
X101540000Y-63330000D03*
X101540000Y-60790000D03*
X104080000Y-63330000D03*
X104080000Y-60790000D03*
X106620000Y-63330000D03*
X106620000Y-60790000D03*
%TD*%
D10*
%TO.C,J5*%
X122500000Y-70500000D03*
D11*
X119960000Y-70500000D03*
%TD*%
D10*
%TO.C,J6*%
X91775000Y-70225000D03*
D11*
X89235000Y-70225000D03*
%TD*%
D10*
%TO.C,J4*%
X84460000Y-63830000D03*
D11*
X84460000Y-61290000D03*
X87000000Y-63830000D03*
X87000000Y-61290000D03*
X89540000Y-63830000D03*
X89540000Y-61290000D03*
X92080000Y-63830000D03*
X92080000Y-61290000D03*
%TD*%
D10*
%TO.C,J2*%
X114460000Y-63330000D03*
D11*
X114460000Y-60790000D03*
X117000000Y-63330000D03*
X117000000Y-60790000D03*
X119540000Y-63330000D03*
X119540000Y-60790000D03*
X122080000Y-63330000D03*
X122080000Y-60790000D03*
%TD*%
D12*
%TO.C,J1*%
X125000000Y-52500000D03*
D13*
X123000000Y-52500000D03*
X121000000Y-52500000D03*
X119000000Y-52500000D03*
X117000000Y-52500000D03*
X115000000Y-52500000D03*
X113000000Y-52500000D03*
X111000000Y-52500000D03*
X109000000Y-52500000D03*
X107000000Y-52500000D03*
X105000000Y-52500000D03*
X103000000Y-52500000D03*
X101000000Y-52500000D03*
X99000000Y-52500000D03*
X97000000Y-52500000D03*
X95000000Y-52500000D03*
X93000000Y-52500000D03*
X91000000Y-52500000D03*
X89000000Y-52500000D03*
X87000000Y-52500000D03*
X85000000Y-52500000D03*
X83000000Y-52500000D03*
X81000000Y-52500000D03*
X79000000Y-52500000D03*
%TD*%
D11*
%TO.C,J7*%
X107460000Y-70665000D03*
D10*
X104920000Y-70665000D03*
%TD*%
%TO.C,J19*%
X132460000Y-63830000D03*
D11*
X132460000Y-61290000D03*
X135000000Y-63830000D03*
X135000000Y-61290000D03*
X137540000Y-63830000D03*
X137540000Y-61290000D03*
X140080000Y-63830000D03*
X140080000Y-61290000D03*
%TD*%
D10*
%TO.C,J21*%
X139775000Y-70225000D03*
D11*
X137235000Y-70225000D03*
%TD*%
M02*
