M48
; DRILL file {KiCad 9.0.0} date 2025-09-02T18:02:44+1200
; FORMAT={-:-/ absolute / metric / decimal}
; #@! TF.CreationDate,2025-09-02T18:02:44+12:00
; #@! TF.GenerationSoftware,Kicad,Pcbnew,9.0.0
; #@! TF.FileFunction,Plated,1,2,PTH
FMAT,2
METRIC
; #@! TA.AperFunction,Plated,PTH,ComponentDrill
T1C0.800
; #@! TA.AperFunction,Plated,PTH,ComponentDrill
T2C1.000
%
G90
G05
T1
X79.0Y-52.5
X81.0Y-52.5
X83.0Y-52.5
X85.0Y-52.5
X87.0Y-52.5
X89.0Y-52.5
X91.0Y-52.5
X93.0Y-52.5
X95.0Y-52.5
X97.0Y-52.5
X99.0Y-52.5
X101.0Y-52.5
X103.0Y-52.5
X105.0Y-52.5
X107.0Y-52.5
X109.0Y-52.5
X111.0Y-52.5
X113.0Y-52.5
X115.0Y-52.5
X117.0Y-52.5
X119.0Y-52.5
X121.0Y-52.5
X123.0Y-52.5
X125.0Y-52.5
X127.0Y-52.5
X129.0Y-52.5
X131.0Y-52.5
X133.0Y-52.5
X135.0Y-52.5
X137.0Y-52.5
X139.0Y-52.5
X141.0Y-52.5
X143.0Y-52.5
X145.0Y-52.5
X147.0Y-52.5
X149.0Y-52.5
X151.0Y-52.5
X153.0Y-52.5
X155.0Y-52.5
X157.0Y-52.5
X159.0Y-52.5
X161.0Y-52.5
X163.0Y-52.5
X165.0Y-52.5
X167.0Y-52.5
X169.0Y-52.5
X171.0Y-52.5
X173.0Y-52.5
X175.0Y-52.5
X177.0Y-52.5
X179.0Y-52.5
X181.0Y-52.5
X183.0Y-52.5
X185.0Y-52.5
X187.0Y-52.5
X189.0Y-52.5
X191.0Y-52.5
X193.0Y-52.5
X195.0Y-52.5
X197.0Y-52.5
X199.0Y-52.5
X201.0Y-52.5
X203.0Y-52.5
X205.0Y-52.5
X207.0Y-52.5
X209.0Y-52.5
X211.0Y-52.5
X213.0Y-52.5
X215.0Y-52.5
X217.0Y-52.5
X219.0Y-52.5
X221.0Y-52.5
T2
X84.46Y-61.29
X84.46Y-63.83
X87.0Y-61.29
X87.0Y-63.83
X89.235Y-70.225
X89.54Y-61.29
X89.54Y-63.83
X91.775Y-70.225
X92.08Y-61.29
X92.08Y-63.83
X99.0Y-60.79
X99.0Y-63.33
X101.54Y-60.79
X101.54Y-63.33
X104.08Y-60.79
X104.08Y-63.33
X104.92Y-70.665
X106.62Y-60.79
X106.62Y-63.33
X107.46Y-70.665
X114.46Y-60.79
X114.46Y-63.33
X117.0Y-60.79
X117.0Y-63.33
X119.54Y-60.79
X119.54Y-63.33
X119.96Y-70.5
X122.08Y-60.79
X122.08Y-63.33
X122.5Y-70.5
X132.46Y-61.29
X132.46Y-63.83
X135.0Y-61.29
X135.0Y-63.83
X137.235Y-70.225
X137.54Y-61.29
X137.54Y-63.83
X139.775Y-70.225
X140.08Y-61.29
X140.08Y-63.83
X147.0Y-60.79
X147.0Y-63.33
X149.54Y-60.79
X149.54Y-63.33
X152.08Y-60.79
X152.08Y-63.33
X152.92Y-70.665
X154.62Y-60.79
X154.62Y-63.33
X155.46Y-70.665
X162.46Y-60.79
X162.46Y-63.33
X165.0Y-60.79
X165.0Y-63.33
X167.54Y-60.79
X167.54Y-63.33
X167.96Y-70.5
X170.08Y-60.79
X170.08Y-63.33
X170.5Y-70.5
X180.46Y-61.29
X180.46Y-63.83
X183.0Y-61.29
X183.0Y-63.83
X185.235Y-70.225
X185.54Y-61.29
X185.54Y-63.83
X187.775Y-70.225
X188.08Y-61.29
X188.08Y-63.83
X195.0Y-60.79
X195.0Y-63.33
X197.54Y-60.79
X197.54Y-63.33
X200.08Y-60.79
X200.08Y-63.33
X200.92Y-70.665
X202.62Y-60.79
X202.62Y-63.33
X203.46Y-70.665
X210.46Y-60.79
X210.46Y-63.33
X213.0Y-60.79
X213.0Y-63.33
X215.54Y-60.79
X215.54Y-63.33
X215.96Y-70.5
X218.08Y-60.79
X218.08Y-63.33
X218.5Y-70.5
M30
